<?xml version="1.0" encoding="UTF-8" standalone="no"?>
<!DOCTYPE svg PUBLIC "-//W3C//DTD SVG 1.1//EN" "http://www.w3.org/Graphics/SVG/1.1/DTD/svg11.dtd">
<svg xmlns="http://www.w3.org/2000/svg" xmlns:xlink="http://www.w3.org/1999/xlink" version="1.1" width="612pt" height="792pt" viewBox="0 0 612 792">
<g enable-background="new">
<clipPath id="cp0">
<path transform="matrix(1,0,0,-1,0,792)" d="M 0 0 L 612 0 L 612 792 L 0 792 Z "/>
</clipPath>
<g clip-path="url(#cp0)">
<path transform="matrix(1,0,0,-1,55.44,72.53998)" stroke-width=".996" stroke-linecap="butt" stroke-miterlimit="10" stroke-linejoin="miter" fill="none" stroke="#000000" d="M 0 0 L 486 0 "/>
<text xml:space="preserve" transform="matrix(1 0 -0 1 0 792)" font-size="14.3462" font-family="NimbusRomNo9L" font-weight="bold"><tspan y="-691.077" x="106.067 116.42496 123.59806 131.57456 137.15523 144.32833 151.90312 157.4838 169.43418 173.42243 178.1997 185.3728 190.15009 194.13834 201.31143 212.87447 222.44339 228.81311 235.9862 242.14073 250.11722 254.10547 262.08198 272.8416 280.8181 288.79463 296.77113 303.14085 313.0971 321.34617 327.71589 339.66627 347.64277 354.81587 361.18559 368.35868 372.34693 376.33518 387.09483 397.4528 404.6259 410.9956 417.1071 423.4768 427.46507 434.63816 439.41545 445.78517 457.3482 467.70619 474.87928 478.86753 484.44819">CausalImitationLearningunderTemporallyCorrelatedNoise</tspan></text>
<path transform="matrix(1,0,0,-1,55.44,120.17999)" stroke-width=".996" stroke-linecap="butt" stroke-miterlimit="10" stroke-linejoin="miter" fill="none" stroke="#000000" d="M 0 0 L 486 0 "/>
<text xml:space="preserve" transform="matrix(1 0 -0 1 0 792)" font-size="9.9626" font-family="NimbusRomNo9L" font-weight="bold"><tspan y="-641.35" x="122.124 129.87491 134.8562 140.3954 145.9346 151.19486 156.73406 163.92705 168.90834 177.20719">GokulSwamy</tspan></text>
<text xml:space="preserve" transform="matrix(1 0 -0 1 0 792)" font-size="6.9738" font-family="NimbusRomNo9L"><tspan y="-644.965" x="183.849">1</tspan></text>
<text xml:space="preserve" transform="matrix(1 0 -0 1 0 792)" font-size="9.9626" font-family="NimbusRomNo9L" font-weight="bold"><tspan y="-641.35" x="193.978 199.5172 204.49849 210.03769 213.35524 216.12485 221.66405 226.64534 234.67519 241.86818 247.40738 252.38867 257.9279 263.4671 269.00633 274.54554 278.96894">SanjibanChoudhury</tspan></text>
<text xml:space="preserve" transform="matrix(1 0 -0 1 0 792)" font-size="6.9738" font-family="NimbusRomNo9L"><tspan y="-644.965" x="285.611">2</tspan></text>
<text xml:space="preserve" transform="matrix(1 0 -0 1 0 792)" font-size="9.9626" font-family="NimbusRomNo9L" font-weight="bold"><tspan y="-641.35" x="295.739 300.52107 305.50239 312.69538 318.2346 323.7738 328.01789 332.44129 342.12495 348.77 353.75129 358.73258 364.2718 368.6952 371.46479">J.AndrewBagnell</tspan></text>
<text xml:space="preserve" transform="matrix(1 0 -0 1 0 792)" font-size="6.9738" font-family="NimbusRomNo9L"><tspan y="-644.965" x="375.895 381.04167">31</tspan></text>
<text xml:space="preserve" transform="matrix(1 0 -0 1 0 792)" font-size="9.9626" font-family="NimbusRomNo9L" font-weight="bold"><tspan y="-641.35" x="391.172 397.81706 403.35627 406.12586 413.31886 417.74226 423.0025 428.54173 431.85926 436.1332 441.01487 445.43827 453.46815 462.9326">ZhiweiStevenWu</tspan></text>
<text xml:space="preserve" transform="matrix(1 0 -0 1 0 792)" font-size="6.9738" font-family="NimbusRomNo9L"><tspan y="-644.965" x="470.132">1</tspan></text>
<text xml:space="preserve" transform="matrix(1 0 -0 1 0 792)" font-size="11.9552" font-family="NimbusRomNo9L" font-weight="bold"><tspan y="-606.764" x="150.198 158.82965 165.47675 170.12732 174.1084 179.4165 185.3941 190.70221">Abstract</tspan></text>
<text xml:space="preserve" transform="matrix(.98994949 0 -0 1.0101526 0 792)" font-size="9.862471" font-family="NimbusRomNo9L"><tspan y="-585.24526" x="76.13116 84.6326 90.954448 95.88568 100.0082 104.7915 109.17043 111.9122 116.84344 123.70772 128.08666 130.82843 135.75966 140.69089 143.97509 146.71686 149.45864 154.38986 162.06287 167.83243 171.11663 176.04785 181.26509 184.00687 191.67987 194.42165 197.16342 201.54236 204.28414 207.02591 211.95714 218.82143 221.5632 225.94214 230.32108 233.60527 238.5365 241.27828 246.2095 253.07379 256.35798 259.6422 264.57347">Wedevelopalgorithmsforimitationlearningfrom</tspan></text>
<text xml:space="preserve" transform="matrix(.99849888 0 -0 1.0015035 0 792)" font-size="9.947644" font-family="NimbusRomNo9L"><tspan y="-578.3624" x="75.4793 80.45312 85.42694 88.19238 90.957828 95.225368 102.70599 107.67981 112.096569 114.86201 121.77562 124.54107 129.5149 133.93166 139.20389 146.2866 150.70337 157.0798 161.49655 166.47039 169.78293 173.09549 178.06932 183.04314 185.80858 190.22534 197.70595 202.67978 210.15047 212.91591 217.33266 225.07193 230.04575 235.01956 238.33213 242.74889 245.51433 248.27977 255.76039 260.17716 265.15098 268.26457">policydatathatwascorruptedbytemporallycor-</tspan></text>
<text xml:space="preserve" transform="matrix(.98994949 0 -0 1.0101526 0 792)" font-size="9.862471" font-family="NimbusRomNo9L"><tspan y="-561.57559" x="76.13116 79.41536 83.7943 86.536067 90.91499 93.65676 98.0357 105.04791 109.97915 114.91039 117.65215 121.488658 127.958438 130.70021 137.71242 141.94342 146.87465 151.80588 156.18483 159.46903 164.29178 168.67073 173.04967 175.79145 178.53322 183.46445 188.39568 192.23218 197.67627 206.98644 211.91767 216.29662 223.30883 228.24005 233.17128 235.91306 239.74956 246.21935 250.59828 253.62606 256.92015 261.29905 265.67799 268.40989">relatednoiseinexpertactions.Whennoiseaffects</tspan></text>
<text xml:space="preserve" transform="matrix(1.0099504 0 -0 .99014768 0 792)" font-size="10.061731" font-family="NimbusRomNo9L"><tspan y="-560.8477" x="74.62347 82.45149 87.48236 90.279529 93.07669 95.873859 100.90472 103.70188 110.90608 113.70325 116.50041 124.328449 128.79586 132.70987 135.50704 139.97443 145.0053 151.6561 156.68697 162.77433 166.12488 170.59227 175.05968 180.09053 183.4411 188.47196 192.93936 200.707 205.73787 210.20526 213.00243 217.46984 222.78244 225.5796 231.11356 235.58097 240.04836 247.81601 255.64405 260.11149 265.14234">multipletimestepsofrecordeddata,itcanman-</tspan></text>
<text xml:space="preserve" transform="matrix(1.00896 0 -0 .99111959 0 792)" font-size="10.051865" font-family="NimbusRomNo9L"><tspan y="-548.2356" x="74.69672 77.491138 80.83841 85.30144 89.21161 94.488849 98.951869 105.3348 109.24498 114.27092 119.29685 122.64413 125.438549 130.46448 135.49042 141.88339 146.34642 151.37236 154.71962 158.0669 162.52993 165.32434 169.78737 172.58179 175.37622 180.40215 185.42809 191.82106 196.847 201.31003 204.10445 211.36191 215.82494 220.28797 227.7967 231.69683 234.49124 238.95427 241.74869 246.21173 252.6047 257.06776 262.09367">ifestasspuriouscorrelationsbetweenstatesand</tspan></text>
<text xml:space="preserve" transform="matrix(.98994949 0 -0 1.0101526 0 792)" font-size="9.862471" font-family="NimbusRomNo9L"><tspan y="-526.071" x="76.13116 80.5101 84.88904 87.630809 90.372577 95.30381 100.23505 106.596347 109.33811 114.26935 118.64829 123.914859 130.81859 133.56035 137.9393 142.31824 145.60243 150.53366 154.91262 160.7216 168.3946 171.13639 176.06761 180.99884 186.26541 189.00719 193.38613 196.1279 200.50684 207.96286 212.89409 220.35012 223.09189 228.02312 233.01355 235.75531 240.13426 244.5132 249.44443 252.1862 257.11744 264.5735 267.31526">actionsthatalearnermightlatchonto,leadingto</tspan></text>
<text xml:space="preserve" transform="matrix(1.005485 0 -0 .99454489 0 792)" font-size="10.017245" font-family="NimbusRomNo9L"><tspan y="-522.30526" x="74.954868 79.963489 84.97211 89.98073 95.79073 100.79936 105.80798 108.59278 111.37757 115.67497 123.15785 128.16648 132.61412 135.94986 139.2856 144.29424 147.62998 155.42339 159.87104 164.87967 169.32732 173.77497 179.35459 184.68376 192.16666 197.1753 200.51103 204.95868 209.40633 216.8892 221.89785 229.38072 232.16551 237.17414 241.6218 245.5185 252.4404 256.3371 261.34574 266.35438">poorpolicyperformance.Tobreakupthesespu-</tspan></text>
<text xml:space="preserve" transform="matrix(1.0099504 0 -0 .99014768 0 792)" font-size="10.061731" font-family="NimbusRomNo9L"><tspan y="-512.55087" x="74.62347 77.97402 80.77119 85.802059 90.83292 97.614528 102.08193 107.1128 110.463359 113.81391 118.28133 121.06843 125.535839 128.333 131.13016 136.16101 141.1919 145.1059 150.58954 157.85411 165.17905 169.64646 174.67733 179.7082 182.50537 190.40383 198.23184 203.26271 208.29358 212.76099 216.11154 224.01001 228.78934 233.25673 236.60729 239.40445 243.87186 248.90271 251.69988 258.48149 263.51237">riouscorrelations,weapplymodernvariantsof</tspan></text>
<text xml:space="preserve" transform="matrix(1.0079682 0 -0 .9920948 0 792)" font-size="10.041984" font-family="NimbusRomNo9L"><tspan y="-499.4946" x="74.77022 77.56189 82.58288">the</tspan></text>
<text xml:space="preserve" transform="matrix(1.0079682 0 -0 .9920948 0 792)" font-size="10.041984" font-family="NimbusRomNo9L" font-style="italic"><tspan y="-499.4946" x="89.52465 92.31632 97.33731 101.24365 104.035327 107.94166 112.96265 120.21296 124.6716 129.6926 132.48427 137.50527 142.77732 147.23596 152.25696 156.16329 158.95496 163.97595 168.99695 171.78864 178.73769 182.27246 186.33946 191.36046 194.89524 199.35388 203.26021 207.16654 209.9582 214.9792">instrumentalvariableregression</tspan></text>
<text xml:space="preserve" transform="matrix(1.0079682 0 -0 .9920948 0 792)" font-size="10.041984" font-family="NimbusRomNo9L"><tspan y="-499.4946" x="222.48719 225.83115 229.17513 236.42545 243.12345 248.9478 251.73947 256.1981 260.65675 265.67774">(IVR)tech-</tspan></text>
<text xml:space="preserve" transform="matrix(.9944848 0 -0 1.0055459 0 792)" font-size="9.907654" font-family="NimbusRomNo9L"><tspan y="-480.9239" x="75.783969 80.73779 83.49212 88.445949 93.39977 100.2955 105.24933 111.05522 115.45422 119.853229 124.80705 129.76088 134.71469 142.42287 146.82187 149.57619 152.87545 155.62976 160.02877 163.88285 168.85649 173.2555 178.20932 182.60832 187.56214 190.31647 193.07079 198.02462 205.48506 210.43889 216.78969 219.54402 226.99457 230.29381 234.69281 239.09181 243.89702 248.70223 253.10123 258.9071 261.66145 266.61528">niqueofeconometrics,enablingustorecoverthe</tspan></text>
<text xml:space="preserve" transform="matrix(1.005982 0 -0 .9940535 0 792)" font-size="10.022197" font-family="NimbusRomNo9L"><tspan y="-474.4574" x="74.91784 79.92894 84.94004 89.95114 94.401 97.73839 100.52457 105.53567 108.32184 113.33294 120.8095 125.8206 130.8317 133.61788 136.40406 140.70357">underlyingpolicy</tspan></text>
<text xml:space="preserve" transform="matrix(1.005982 0 -0 .9940535 0 792)" font-size="10.022197" font-family="NimbusRomNo9L" font-style="italic"><tspan y="-474.4574" x="148.18755 154.87236 157.65853 160.4447 165.45581 170.4669 175.47801">without</tspan></text>
<text xml:space="preserve" transform="matrix(1.005982 0 -0 .9940535 0 792)" font-size="10.022197" font-family="NimbusRomNo9L"><tspan y="-474.4574" x="180.9108 184.24819 188.69805 193.70914 198.72025 201.50643 204.84381 207.62999 212.64109 220.11765 224.5675 229.01735 233.46721 237.91706 241.81569 248.1898 250.97599 258.4525 262.90238">requiringaccesstoan</tspan></text>
<text xml:space="preserve" transform="matrix(1.0099504 0 -0 .99014768 0 792)" font-size="10.061731" font-family="NimbusRomNo9L"><tspan y="-464.255" x="74.62347 77.42063 82.45149 85.24866 89.71607 93.06663 97.534038 102.00145 104.798618 107.34424 112.23424 119.458568 123.775058 128.80593 133.83679 138.3042 141.65476 144.45192 150.91155 154.2621 162.04988 167.08074 171.54814 174.8987 177.69586 180.49303 184.96044 189.99129 192.78845 197.25586 200.214 205.5568 212.82135 220.04567 225.07654 228.4271 232.8945 236.8085 241.27591 246.30678 251.86086 254.658 261.83204">interactiveexpert.Inparticular,wepresenttwo</tspan></text>
<text xml:space="preserve" transform="matrix(1.0099504 0 -0 .99014768 0 792)" font-size="10.061731" font-family="NimbusRomNo9L"><tspan y="-452.18006" x="74.62347 77.42063 81.88804 86.35545 91.386318 96.41718 99.21435 104.24522 109.27608 113.74349 117.6575 122.919788 127.95066 132.98154 140.14548 145.17635 151.21338 158.37734 163.4082 167.87561 172.90647 177.37387 180.72443 185.19184 187.989 190.54468 195.42462 199.89203 203.24259 211.0706 216.10147 221.13236 225.59976 228.39691 231.19408 236.22495 243.95236 249.54669 253.81285 258.6425 263.67335">techniques,oneofagenerative-modeling&#xfb02;avor</tspan></text>
<text xml:space="preserve" transform="matrix(1.0099504 0 -0 .99014768 0 792)" font-size="10.061731" font-family="NimbusRomNo9L"><tspan y="-440.10609" x="74.297718">(</tspan></text>
<text xml:space="preserve" transform="matrix(1 0 -0 1 0 792)" font-size="9.9626" font-family="NimbusMonL"><tspan y="-435.77" x="78.421 84.39856 90.37612 96.35368 102.331249 108.30881">DoubIL</tspan></text>
<text xml:space="preserve" transform="matrix(1.0099504 0 -0 .99014768 0 792)" font-size="10.061731" font-family="NimbusRomNo9L"><tspan y="-440.10609" x="113.16002 119.25742 122.05459 127.08546 131.55286 137.09688 141.56429 146.0317 153.81946 158.85031 161.64748 164.44464 167.2418 170.03897 174.50638 181.72063 186.18804 190.65544 195.12285 199.59026 203.50426 210.16513 212.9623 220.74 227.95426 231.86827 234.66544 242.49346 247.5243 250.32147 254.78888 257.58604 262.6169 265.57508">)thatcanutilizeaccesstoasimulator,</tspan></text>
<text xml:space="preserve" transform="matrix(1.005485 0 -0 .99454489 0 792)" font-size="10.017245" font-family="NimbusRomNo9L"><tspan y="-426.13966" x="74.954868 79.40253 84.41115 91.88401 96.89263 101.90125 108.813159 113.82178 119.621768 126.543689 131.50223 135.94988 143.7433 148.19095 151.52669 154.31148 159.3201 163.76776 168.77639 172.11212 176.55977 179.34456 182.12935 189.04125 194.61083 198.85814 203.66641 208.67505 214.47502">andoneofagame-theoretic&#xfb02;avor(</tspan></text>
<text xml:space="preserve" transform="matrix(1 0 -0 1 0 792)" font-size="9.9626" font-family="NimbusMonL"><tspan y="-423.815" x="219.008 224.98555 230.9631 236.94066 242.91822 248.89577 254.87332 260.8509">ResiduIL</tspan></text>
<text xml:space="preserve" transform="matrix(1.005485 0 -0 .99454489 0 792)" font-size="10.017245" font-family="NimbusRomNo9L"><tspan y="-426.13966" x="265.3724">)</tspan></text>
<text xml:space="preserve" transform="matrix(1.0099504 0 -0 .99014768 0 792)" font-size="10.061731" font-family="NimbusRomNo9L"><tspan y="-415.95817" x="74.62347 77.42063 82.45149 86.91891 92.46292 96.930339 101.39774 109.17547 114.20633 121.42059 124.77115 129.80202 137.58982 142.04715 147.07802 149.87519 152.67235 156.0229 160.49031 163.28748 171.07524 176.10611 179.20513 184.79946 187.59662 192.62747 197.09488 203.51427 212.21767 219.43193 225.02625 230.05713 237.83486 242.8657 247.89659 250.69376 258.4815 263.5124">thatcanberunentirelyof&#xfb02;ine.We&#xfb01;ndbothof</tspan></text>
<text xml:space="preserve" transform="matrix(1.0099504 0 -0 .99014768 0 792)" font-size="10.061731" font-family="NimbusRomNo9L"><tspan y="-403.88423" x="74.62347 79.65433 84.685199 90.63168 95.09909 97.896259 102.927127 107.957988 111.30855 114.105709 116.90287 121.93374 129.76177 136.2717 140.7391 145.76996 153.59798 158.62886 163.09627 166.44683 173.51015 176.76007 181.02625 185.86594 190.8968 194.24736 198.71475 203.74564 206.5428 214.15953 216.9567 224.58348 229.61437 234.08176 239.11263 243.38886 248.41973 251.21689 256.24775 259.59834 264.06575">ouralgorithmscomparefavorablytobehavioral</tspan></text>
<text xml:space="preserve" transform="matrix(1 0 -0 1 0 792)" font-size="9.9626" font-family="NimbusRomNo9L"><tspan y="-387.95" x="75.366 79.78939 82.55899 87.54029 92.52159 95.29119 100.27249 107.74444 112.72574 120.197689 124.073139 126.842739 134.59365 139.57494 142.34455 146.76795 149.53755 153.96096 161.43289 165.8563 170.83759 175.81888 178.58849 181.90604 186.88733 192.14759 194.91719 199.34059 203.21605 208.19734 212.0728">cloningonsimulatedcontroltasks.</tspan></text>
<text xml:space="preserve" transform="matrix(1 0 -0 1 0 792)" font-size="11.9552" font-family="NimbusRomNo9L" font-weight="bold"><tspan y="-344.462" x="55.44 61.4176 67.3952 72.04578 78.69287 82.67395 87.76686 93.74446 100.391559 107.03865 112.346759 116.327838 119.65138 125.62898">1.Introduction</tspan></text>
<text xml:space="preserve" transform="matrix(1.0099504 0 -0 .99014768 0 792)" font-size="10.061731" font-family="NimbusRomNo9L"><tspan y="-328.32377" x="54.893785 63.838666 68.86953 73.336948 81.08447 86.11534 92.1725 94.969669 100.000537 107.18461 109.98177 115.01264 119.48005 124.51092 127.86147 135.609 140.63986 146.69702 149.49419 157.3222 160.11937 162.91654 167.38394 170.18109 172.97826 178.00914 185.75669 188.55384 193.02124 197.48865 200.8392 205.87006 208.66722 213.69809 221.43556 224.78612 228.13668 234.2844 240.35163 243.14879 247.61618 250.41335 253.21051 259.84123 264.87208 271.49275 274.2899 279.32075 283.78819">Muchofthetheoryofimitationlearning(IL)tellsusthat</tspan></text>
<text xml:space="preserve" transform="matrix(.98994949 0 -0 1.0101526 0 792)" font-size="9.862471" font-family="NimbusRomNo9L"><tspan y="-309.98686" x="55.641225 62.76193 65.5037 68.24547 75.16892 79.54787 84.4791 89.41034 94.341579 99.27281 106.19627 111.12751 115.506458 123.17946 128.11069 133.04193 136.87844 139.62021 142.9044 147.28334 150.02512 152.76689 157.69812 162.62935 166.46585 171.03218 178.15288 184.52405 188.36055 193.29178 198.223 203.15424 205.89601 212.81946 217.75069 224.12186 228.5008 233.43202 236.1738 242.54497 245.28675 252.21019 256.58915 260.96806 265.347 270.27824 273.56245 277.94139 280.68315 285.06208 287.80384">withenoughdemonstrations,weshouldbeabletoaccurately</tspan></text>
<text xml:space="preserve" transform="matrix(.9924717 0 -0 1.0075854 0 792)" font-size="9.887598" font-family="NimbusRomNo9L"><tspan y="-298.91163" x="55.860536 59.153108 63.543199 67.93329 72.728778 77.52426 81.91435 87.718379 90.467128 95.41093 102.32236 106.56413 111.50793 116.45173 120.84182 124.13439 126.88314 129.62201 135.98963 140.93343 145.87723 148.62598 151.37473 155.60662 159.89785 165.51399 175.16429 177.91304 182.85684 187.80065 195.26578 198.01453 200.76329 205.70709 212.61852 217.56232 223.3762 230.4063 235.3501 238.64266 246.10779">recovertheexpert&#x2019;spolicy.Alonglineofwork(</tspan></text>
<text fill="#001473" xml:space="preserve" transform="matrix(.9924717 0 -0 1.0075854 0 792)" font-size="9.887598" font-family="NimbusRomNo9L"><tspan y="-298.91163" x="249.40036 255.99539 260.93919 264.78547 271.15309 275.54319 280.8034 285.1935 287.94227">Rossetal.</tspan></text>
<text xml:space="preserve" transform="matrix(.9924717 0 -0 1.0075854 0 792)" font-size="9.887598" font-family="NimbusRomNo9L"><tspan y="-298.91163" x="290.41416">,</tspan></text>
<text fill="#001473" xml:space="preserve" transform="matrix(1.0099504 0 -0 .99014768 0 792)" font-size="10.061731" font-family="NimbusRomNo9L"><tspan y="-292.1009" x="54.893785 59.924654 64.95552 69.98639">2011</tspan></text>
<text xml:space="preserve" transform="matrix(1.0099504 0 -0 .99014768 0 792)" font-size="10.061731" font-family="NimbusRomNo9L"><tspan y="-292.1009" x="75.01725">;</tspan></text>
<text fill="#001473" xml:space="preserve" transform="matrix(1.0099504 0 -0 .99014768 0 792)" font-size="10.061731" font-family="NimbusRomNo9L"><tspan y="-292.1009" x="80.29967 85.89399 90.92485 98.44097 102.90838 108.190799 112.6582 115.45537">Sunetal.</tspan></text>
<text xml:space="preserve" transform="matrix(1.0099504 0 -0 .99014768 0 792)" font-size="10.061731" font-family="NimbusRomNo9L"><tspan y="-292.1009" x="117.97084">,</tspan></text>
<text fill="#001473" xml:space="preserve" transform="matrix(1.0099504 0 -0 .99014768 0 792)" font-size="10.061731" font-family="NimbusRomNo9L"><tspan y="-292.1009" x="122.97149 128.00237 133.03324 138.0641">2019</tspan></text>
<text xml:space="preserve" transform="matrix(1.0099504 0 -0 .99014768 0 792)" font-size="10.061731" font-family="NimbusRomNo9L"><tspan y="-292.1009" x="143.09496">;</tspan></text>
<text fill="#001473" xml:space="preserve" transform="matrix(1.0099504 0 -0 .99014768 0 792)" font-size="10.061731" font-family="NimbusRomNo9L"><tspan y="-292.1009" x="148.3774 153.97173 159.00258 163.46999 168.50084 172.96825 177.43566 183.27146 187.73886 193.02127 197.48868 200.28585">Spenceretal.</tspan></text>
<text xml:space="preserve" transform="matrix(1.0099504 0 -0 .99014768 0 792)" font-size="10.061731" font-family="NimbusRomNo9L"><tspan y="-292.1009" x="202.80126">,</tspan></text>
<text fill="#001473" xml:space="preserve" transform="matrix(1.0099504 0 -0 .99014768 0 792)" font-size="10.061731" font-family="NimbusRomNo9L"><tspan y="-292.1009" x="207.802 212.83286 217.86373 222.8946">2021</tspan></text>
<text xml:space="preserve" transform="matrix(1.0099504 0 -0 .99014768 0 792)" font-size="10.061731" font-family="NimbusRomNo9L"><tspan y="-292.1009" x="227.92546">;</tspan></text>
<text fill="#001473" xml:space="preserve" transform="matrix(1.0099504 0 -0 .99014768 0 792)" font-size="10.061731" font-family="NimbusRomNo9L"><tspan y="-292.1009" x="233.2078 238.80213 245.96607 250.43347 258.2615 265.77763 270.24504 275.52745 279.99488 282.792">Swamyetal.</tspan></text>
<text xml:space="preserve" transform="matrix(1.0099504 0 -0 .99014768 0 792)" font-size="10.061731" font-family="NimbusRomNo9L"><tspan y="-292.1009" x="285.30747">,</tspan></text>
<text fill="#001473" xml:space="preserve" transform="matrix(1.0069759 0 -0 .99307247 0 792)" font-size="10.032098" font-family="NimbusRomNo9L"><tspan y="-279.2022" x="55.055936 60.071985 65.08803 70.10408">2021</tspan></text>
<text xml:space="preserve" transform="matrix(1.0069759 0 -0 .99307247 0 792)" font-size="10.032098" font-family="NimbusRomNo9L"><tspan y="-279.2022" x="75.120128 80.91867 85.934719 90.38897 96.75935 101.7754 106.22965 109.570339 112.10847 116.97404 121.42828 128.91223 133.92829 138.38254 141.72322 145.06392 150.07997 153.42067 161.22563 165.67989 170.69594 175.15018 182.06229 187.07834 192.09439 197.11045 202.1265 207.14253 213.51291 216.30184 221.31789 225.77214 231.01892 234.9214 239.37564 243.8299 254.10277 256.89167 264.36558 267.15449 274.95945 279.9755 282.7644">)hasderivedperformanceboundsthatseemtoimply</tspan></text>
<text xml:space="preserve" transform="matrix(1 0 -0 1 0 792)" font-size="9.9626" font-family="NimbusRomNo9L"><tspan y="-265.313" x="55.44 58.209604 63.190904 67.614299 72.87454 75.64414 81.45233 84.22193 89.20323 94.74244 99.72374 102.49334 105.26294 109.68633 113.003879 116.879329 121.30272 129.05362 134.03491 136.80452 143.71857 146.48818 149.80573 154.22913 156.99874 161.98003 164.74964 169.73093 177.20287 181.62627 184.94382 188.26137 193.24266 199.05086 201.82047 208.19654 213.17783 216.49538 219.01592 223.84777 228.27117 235.7431 238.51271 245.98465 250.40805 254.83145 258.149 263.13029 268.1116 272.84385 277.26725 280.03684 285.01814">thatifin&#xfb01;nite-sampletrainingerrorisdriventozero,value</tspan></text>
<text xml:space="preserve" transform="matrix(1.0099504 0 -0 .99014768 0 792)" font-size="10.061731" font-family="NimbusRomNo9L"><tspan y="-255.87902" x="54.893785 59.36119 64.39206 69.42292 71.97861 76.757938 81.22535 84.02251 88.48992 93.52079 97.9882 105.4037 108.20087 116.169757 118.96692 123.99779 131.41327 135.72974 140.7606 145.79148 150.25888 153.60944 159.34462 164.37548 169.40636 172.20352 175.00069 179.32721 187.2961 191.2101 196.24097 201.27184 206.3027 209.09987 217.07881 220.42937 225.46022 228.25739 231.05455 235.8339 242.46457 249.46753 256.7321 261.5114 268.77598 273.00193 277.88185 282.34928 285.30744">equivalencetotheexpertpolicyshouldfollow.However,</tspan></text>
<text xml:space="preserve" transform="matrix(.9944848 0 -0 1.0055459 0 792)" font-size="9.907654" font-family="NimbusRomNo9L"><tspan y="-240.07161" x="55.387479 62.540807 67.49464 71.89364 79.3541 86.50743 93.42297 97.821979 102.22098 104.9753 109.92913 114.32813 117.082469 119.83679 127.29726 131.69625 136.65007 141.6039 144.35822 151.82859 155.12784 163.68805 168.08705 170.84137 175.7952 180.74901 184.04827 186.8026 189.55692 194.51074 202.2189 208.57962 213.53343 221.00382 223.75814 228.15714 231.27805 236.23188 243.13751 248.09133 252.49033 255.24466 259.64366 263.4977 267.8967 270.65104 274.50514 279.48866 286.64198">whenweactuallyapplyILalgorithmsonlargedatasets,we</tspan></text>
<text xml:space="preserve" transform="matrix(.9934788 0 -0 1.0065641 0 792)" font-size="9.897631" font-family="NimbusRomNo9L"><tspan y="-227.95169" x="55.80391 59.654088 64.6029 72.30325 76.6978 79.44934 82.20088 89.90124 94.295787 100.659969 104.51015 108.90469 115.81324 118.56478 123.513599 127.90814 138.1225 143.07132 146.36724 151.31606 156.26488 161.2137 165.60825 172.51679 180.21715 184.6117 189.56052 192.31206 195.60797 200.00252 203.85269 206.60424 209.34589 216.8087 219.56024 224.50907 228.90363 233.85245 237.14835 240.44426 244.8388 249.23336 254.49889 258.89344 262.74363 265.49519 268.24674 275.94709 280.34165 283.0932 287.48774">sometimesseethemproducemanifestlyincorrectestimates</tspan></text>
<text xml:space="preserve" transform="matrix(1.0079682 0 -0 .9920948 0 792)" font-size="10.041984" font-family="NimbusRomNo9L"><tspan y="-219.22502" x="55.001737 60.022729 65.83703 68.62871 73.6497 80.588718 84.89672 89.91772 94.938709 99.39735 102.741329 105.533008 108.334728 114.71139 119.732379 124.753368 127.54504 130.33672 134.64473 142.1461">oftheexpert&#x2019;spolicy(</tspan></text>
<text fill="#001473" xml:space="preserve" transform="matrix(1.0079682 0 -0 .9920948 0 792)" font-size="10.041984" font-family="NimbusRomNo9L"><tspan y="-219.22502" x="145.49011 154.41744 159.43843 162.2301 165.02178 169.48043 175.29473 179.75336 185.01537 189.474 192.26567">Mulleretal.</tspan></text>
<text xml:space="preserve" transform="matrix(1.0079682 0 -0 .9920948 0 792)" font-size="10.041984" font-family="NimbusRomNo9L"><tspan y="-219.22502" x="194.77608">,</tspan></text>
<text fill="#001473" xml:space="preserve" transform="matrix(1.0079682 0 -0 .9920948 0 792)" font-size="10.041984" font-family="NimbusRomNo9L"><tspan y="-219.22502" x="199.76702 204.78801 209.809 214.83">2006</tspan></text>
<text xml:space="preserve" transform="matrix(1.0079682 0 -0 .9920948 0 792)" font-size="10.041984" font-family="NimbusRomNo9L"><tspan y="-219.22502" x="219.85099">;</tspan></text>
<text fill="#001473" xml:space="preserve" transform="matrix(1.0079682 0 -0 .9920948 0 792)" font-size="10.041984" font-family="NimbusRomNo9L"><tspan y="-219.22502" x="225.11295 231.81096 236.83196 241.85295 246.06055 251.08155 253.87322 256.6649 259.45655 266.39555 270.8542 276.11619 280.57484 283.3665">Codevillaetal.</tspan></text>
<text xml:space="preserve" transform="matrix(1.0079682 0 -0 .9920948 0 792)" font-size="10.041984" font-family="NimbusRomNo9L"><tspan y="-219.22502" x="285.87699">,</tspan></text>
<text fill="#001473" xml:space="preserve" transform="matrix(1.0099504 0 -0 .99014768 0 792)" font-size="10.061731" font-family="NimbusRomNo9L"><tspan y="-207.58219" x="54.893785 59.924654 64.95552 69.98639">2019</tspan></text>
<text xml:space="preserve" transform="matrix(1.0099504 0 -0 .99014768 0 792)" font-size="10.061731" font-family="NimbusRomNo9L"><tspan y="-207.58219" x="75.01725">;</tspan></text>
<text fill="#001473" xml:space="preserve" transform="matrix(1.0099504 0 -0 .99014768 0 792)" font-size="10.061731" font-family="NimbusRomNo9L"><tspan y="-207.58219" x="81.39639 86.42726 94.476657 101.74122 106.20863 110.67604 119.29894 123.76636 130.1455 134.6129 137.41007">deHaanetal.</tspan></text>
<text xml:space="preserve" transform="matrix(1.0099504 0 -0 .99014768 0 792)" font-size="10.061731" font-family="NimbusRomNo9L"><tspan y="-207.58219" x="139.92548">,</tspan></text>
<text fill="#001473" xml:space="preserve" transform="matrix(1.0099504 0 -0 .99014768 0 792)" font-size="10.061731" font-family="NimbusRomNo9L"><tspan y="-207.58219" x="146.02292 151.05379 156.08466 161.11553">2019</tspan></text>
<text xml:space="preserve" transform="matrix(1.0099504 0 -0 .99014768 0 792)" font-size="10.061731" font-family="NimbusRomNo9L"><tspan y="-207.58219" x="166.1464">;</tspan></text>
<text fill="#001473" xml:space="preserve" transform="matrix(1.0099504 0 -0 .99014768 0 792)" font-size="10.061731" font-family="NimbusRomNo9L"><tspan y="-207.58219" x="172.52552 179.23668 183.70409 188.73496 192.64897 197.11638 203.49552 207.96292 214.34206 218.80947 221.60662">Bansaletal.</tspan></text>
<text xml:space="preserve" transform="matrix(1.0099504 0 -0 .99014768 0 792)" font-size="10.061731" font-family="NimbusRomNo9L"><tspan y="-207.58219" x="224.1221">,</tspan></text>
<text fill="#001473" xml:space="preserve" transform="matrix(1.0099504 0 -0 .99014768 0 792)" font-size="10.061731" font-family="NimbusRomNo9L"><tspan y="-207.58219" x="230.21953 235.25038 240.28127 245.31214">2018</tspan></text>
<text xml:space="preserve" transform="matrix(1.0099504 0 -0 .99014768 0 792)" font-size="10.061731" font-family="NimbusRomNo9L"><tspan y="-207.58219" x="250.34299">;</tspan></text>
<text fill="#001473" xml:space="preserve" transform="matrix(1.0099504 0 -0 .99014768 0 792)" font-size="10.061731" font-family="NimbusRomNo9L"><tspan y="-207.58219" x="256.7322 263.84587 268.87675 273.34416 278.93849 283.40589">Kue&#xfb02;er</tspan></text>
<text fill="#001473" xml:space="preserve" transform="matrix(1.0099504 0 -0 .99014768 0 792)" font-size="10.061731" font-family="NimbusRomNo9L"><tspan y="-195.50823" x="54.893785 59.36119 64.84483 69.31225 72.10941">etal.</tspan></text>
<text xml:space="preserve" transform="matrix(1.0099504 0 -0 .99014768 0 792)" font-size="10.061731" font-family="NimbusRomNo9L"><tspan y="-195.50823" x="74.62485">,</tspan></text>
<text fill="#001473" xml:space="preserve" transform="matrix(1.0099504 0 -0 .99014768 0 792)" font-size="10.061731" font-family="NimbusRomNo9L"><tspan y="-195.50823" x="79.8167 84.847568 89.87843 94.9093">2017</tspan></text>
<text xml:space="preserve" transform="matrix(1.0099504 0 -0 .99014768 0 792)" font-size="10.061731" font-family="NimbusRomNo9L"><tspan y="-195.50823" x="99.940158 103.29072 109.518939 116.7835 121.81437 128.96826 133.99912 139.02999 142.944 146.85802 149.65518 154.68604 157.4832 164.63709 167.98764 172.45505 176.92244 180.83646 185.86731 193.5746 196.92516 201.95604 207.99308 210.79024 215.82109 218.61826 225.21875 230.2496 235.28049 239.74788 244.77875 249.80962 257.63764 262.10508 267.13594 272.1668 279.8741 282.67127">).Onepossiblereasonforthisphenomenonis</tspan></text>
<text xml:space="preserve" transform="matrix(.98994949 0 -0 1.0101526 0 792)" font-size="9.862471" font-family="NimbusRomNo9L"><tspan y="-179.80155" x="56.002859 58.744626 63.675859 68.054798 73.22273 77.60167 85.27467 90.20591 92.94768 96.23189 98.97365 103.35259 107.73154 110.4733 113.215068 117.48552 122.397029 129.51773 136.31298 143.98598 146.72774 151.65898 156.59021 161.75815 166.68938 171.6206 174.36238 181.71977 186.651 190.82283 195.60611 202.40135 206.78029 211.15924 215.53818 219.91712 223.75362 230.01628 232.75806 240.11545 243.39966 247.7786 252.15753 257.08879 260.37297 265.3042 268.04597 272.9772 277.90846 284.1613 289.09254">thatempirically,wemightonlyhaveaccesstorecordingsof</tspan></text>
<text xml:space="preserve" transform="matrix(.9924717 0 -0 1.0075854 0 792)" font-size="9.887598" font-family="NimbusRomNo9L"><tspan y="-168.39466" x="55.860536 58.609285 63.553087 70.45463 74.69641 79.640209 84.584 88.97409 92.26666 97.516979 100.265727 105.20952 109.59961 114.85982 119.24991 122.54248 129.44402 133.8341 138.77793 142.07048 145.36304 150.30686 155.25066 157.9994 162.3895 169.83486 174.77866">theexpertthatarecorruptedby</tspan></text>
<text xml:space="preserve" transform="matrix(.9924717 0 -0 1.0075854 0 792)" font-size="9.887598" font-family="NimbusRomNo9L" font-style="italic"><tspan y="-168.39466" x="182.23392 184.98267 189.37276 196.5116 201.4554 206.3992 210.09717 215.04097 217.78972 220.53847 227.43012 231.8202 236.764 240.61029 244.09073 248.48082 251.22957 256.17338 258.92216 263.31227 270.76753 275.71134 280.65513 283.40388 287.25016">temporallycorrelatednoise</tspan></text>
<text xml:space="preserve" transform="matrix(1.0099504 0 -0 .99014768 0 792)" font-size="10.061731" font-family="NimbusRomNo9L"><tspan y="-159.28635" x="54.569017 57.919576 64.06729 70.77847 78.04304 81.39359 86.84706 92.29045 97.32132 103.619968 107.93645 112.967319 117.43473 125.26276 130.29361 133.09078 137.55818 143.13239 150.53781 155.56867 160.59955 165.06694 170.09781 174.56522 179.59607 184.62694 187.4241 191.89151 198.18009 203.21094 206.0081 208.80527 213.83615 219.57134 227.39936 230.19652 235.22739 240.25827 246.00351 251.03437 255.30054 260.18049 267.59599 272.62687 277.09428 281.5617">(TCN).Forexample,aquadcopterpilotmighthavebeen</tspan></text>
<text xml:space="preserve" transform="matrix(1 0 -0 1 0 792)" font-size="9.9626" font-family="NimbusRomNo9L"><tspan y="-145.761" x="55.44 60.979207 65.9605 68.7301 73.7114 81.18335 86.16465 91.14595 96.12725 100.550647 106.35883 111.34013 115.76353 119.08107 122.95652 125.72612 129.60158 132.37119 136.79459 141.77588 147.02617 154.21916 156.98877 161.97006 169.442 174.4233 180.23149 184.65489 192.12683 196.40079 201.38208 206.36338 210.78678 214.10433 219.35462 224.3359 227.65346 230.174 235.00585 239.42925 245.23744 252.98834 255.75795 260.73927 265.72056 270.9808 275.9621 280.18626 285.0181">&#xfb02;yingunderpersistentwindoranexpertdrivermighthave</tspan></text>
<path transform="matrix(1,0,0,-1,55.44,654.572)" stroke-width=".398" stroke-linecap="butt" stroke-miterlimit="10" stroke-linejoin="miter" fill="none" stroke="#000000" d="M 0 0 L 57.6 0 "/>
<text xml:space="preserve" transform="matrix(1 0 -0 1 0 792)" font-size="5.9776" font-family="NimbusRomNo9L"><tspan y="-130.561" x="67.067">1</tspan></text>
<text xml:space="preserve" transform="matrix(.98994949 0 -0 1.0101525 0 792)" font-size="8.876284" font-family="NimbusRomNo9L"><tspan y="-125.47809" x="71.269298 77.18978 81.130847 84.08665 88.524799 92.33272 96.77087 99.23847 105.309848 113.20087 117.14193 119.609539 122.07715 126.51529 133.08376 139.49243 143.93058 146.17627 150.48128 154.42235 157.37816 160.82215 163.28975 165.75737">CarnegieMellonUniversity</tspan></text>
<text xml:space="preserve" transform="matrix(1 0 -0 1 0 792)" font-size="5.9776" font-family="NimbusRomNo9L"><tspan y="-130.561" x="170.601">2</tspan></text>
<text xml:space="preserve" transform="matrix(.98994949 0 -0 1.0101525 0 792)" font-size="8.876284" font-family="NimbusRomNo9L"><tspan y="-125.47809" x="175.85544 181.77593 186.21407 189.16988 193.60802 197.54909 200.0167 204.61463 211.0233 215.46144 217.70716 222.00327 225.94434 228.90015 232.35301 234.82064 237.28824">CornellUniversity</tspan></text>
<text xml:space="preserve" transform="matrix(1 0 -0 1 0 792)" font-size="5.9776" font-family="NimbusRomNo9L"><tspan y="-130.561" x="241.412">3</tspan></text>
<text xml:space="preserve" transform="matrix(.98994949 0 -0 1.0101525 0 792)" font-size="8.876284" font-family="NimbusRomNo9L"><tspan y="-125.47809" x="247.38536 253.79404 258.23219 261.188 265.6261 268.5819 274.65327 277.60908 282.04719 286.48533 290.92347">AuroraInno-</tspan></text>
<text xml:space="preserve" transform="matrix(.9924717 0 -0 1.0075854 0 792)" font-size="8.898898" font-family="NimbusRomNo9L"><tspan y="-115.91077" x="55.634836 59.86181 63.812925 66.28681 68.76071 73.21016 77.659618 82.67859 88.61415 93.0636 96.02694 98.99027 102.941379 106.403049 110.8525 115.30195 119.7514 124.20085 128.15196 132.60141 136.55254 142.76396 145.23787 149.68732 154.96437 161.38936 165.83882 170.28827 174.73772 179.47194 184.41973 190.74684 194.69795 201.62129">vation.Correspondenceto:GokulSwamy</tspan></text>
<text xml:space="preserve" transform="matrix(1 0 -0 1 0 792)" font-size="8.9664" font-family="CMMI9" font-style="italic"><tspan y="-116.79" x="206.764">&#x003c;</tspan></text>
<text xml:space="preserve" transform="matrix(.9924717 0 -0 1.0075854 0 792)" font-size="8.898898" font-family="NimbusRomNo9L"><tspan y="-115.91077" x="215.55376 220.0032 223.46488 229.80089 233.752 240.67534 245.12479 253.32068 257.2718 264.19517 268.6446 270.86933 274.82044 279.26988">gswamy@cmu.edu</tspan></text>
<text xml:space="preserve" transform="matrix(1 0 -0 1 0 792)" font-size="8.9664" font-family="CMMI9" font-style="italic"><tspan y="-116.79" x="281.582">&#x003e;</tspan></text>
<text xml:space="preserve" transform="matrix(.9924717 0 -0 1.0075854 0 792)" font-size="8.898898" font-family="NimbusRomNo9L"><tspan y="-115.91077" x="290.93928">.</tspan></text>
<text xml:space="preserve" transform="matrix(1.0099505 0 -0 .99014756 0 792)" font-size="9.05562" font-family="NimbusRomNo9L" font-style="italic"><tspan y="-97.82886" x="54.618516 60.1515 63.27569 67.80349 71.824199 75.844898 79.86559 84.393398 86.91086 91.43867 95.96647 102.495578 107.023387 112.54731 115.06477 119.592578">Proceedingsofthe</tspan></text>
<text xml:space="preserve" transform="matrix(1 0 -0 1 0 792)" font-size="8.9664" font-family="CMTI9" font-style="italic"><tspan y="-96.865" x="127.878 132.58267">39</tspan></text>
<text xml:space="preserve" transform="matrix(1 0 -0 1 0 792)" font-size="5.9776" font-family="CMMI6" font-style="italic"><tspan y="-100.674" x="138.497 141.3471">th</tspan></text>
<text xml:space="preserve" transform="matrix(1.0099505 0 -0 .99014756 0 792)" font-size="9.05562" font-family="NimbusRomNo9L" font-style="italic"><tspan y="-97.82886" x="147.74883 150.76435 155.29215 157.80962 161.8303 165.35295 169.88076 174.40856 176.92603 179.44348 183.97129 188.4991 193.0269 198.55083 204.59093 209.11873 213.64655 216.164 220.1847 223.38134 227.40203 231.92984 235.95053 242.97768 247.5055 255.03977 262.5831 267.1109 270.9958 275.5236 278.04106 282.56889">InternationalConferenceonMachine</tspan></text>
<text xml:space="preserve" transform="matrix(1.0099505 0 -0 .99014756 0 792)" font-size="9.05562" font-family="NimbusRomNo9L" font-style="italic"><tspan y="-87.76672" x="54.645254 59.680177 63.700876 68.22868 71.75132 76.27912 78.796588 83.324398">Learning</tspan></text>
<text xml:space="preserve" transform="matrix(1.0099505 0 -0 .99014756 0 792)" font-size="9.05562" font-family="NimbusRomNo9L"><tspan y="-87.76672" x="87.85183 92.59697 98.63707 102.65777 105.17523 107.692699 110.21015 117.25543 121.78323 124.79875 128.81946 133.57366 141.62412 145.6448 148.65128 153.17908 155.69655 159.71724 164.24504 168.77285 173.52706 180.06522 185.10013 191.63829 196.3291 201.36402 209.41446 214.94745 223.42353 227.95133 232.47914 237.00695 241.7521 246.2799 250.80771 255.33554 259.86335 265.51408 271.55418 276.08198 280.51924 285.04707">,Baltimore,Maryland,USA,PMLR162,2022.Copy-</tspan></text>
<text xml:space="preserve" transform="matrix(1 0 -0 1 0 792)" font-size="8.9664" font-family="NimbusRomNo9L"><tspan y="-76.939" x="55.44 58.42581 60.918474 65.40167 69.88487 74.61913 79.10233 83.58553 88.06873 94.79353 99.27673 106.00153 108.494197 112.977397 119.20007 123.18115 127.66435 130.15702 134.64022 139.12342 142.10923 145.09503 148.58296 151.56877">right2022bytheauthor(s).</tspan></text>
<text xml:space="preserve" transform="matrix(1.0099504 0 -0 .99014768 0 792)" font-size="10.061731" font-family="NimbusRomNo9L"><tspan y="-612.8015" x="304.411 309.44187 313.9093 318.3767 326.5871 331.61799 335.53199 338.32914 343.36003 351.58049 359.2274 363.69483 368.16224 374.69233 381.95689 384.75404 387.55119 395.76158 399.6756 402.47276 405.2699 409.7373 414.62733 422.8377 427.8686 431.21916 435.68659 440.61683 445.08424 448.99827 456.72569 465.67054 470.70143 474.05198 481.6989 486.7298 491.1972 496.2281 500.6955 504.04609 508.51347 511.31065 514.1078 518.49478 524.3708 531.6354">beenusingacarwithstickybrakes.Moregenerally,we</tspan></text>
<text xml:space="preserve" transform="matrix(.98994949 0 -0 1.0101526 0 792)" font-size="9.862471" font-family="NimbusRomNo9L"><tspan y="-588.82986" x="310.5613 318.2343 320.97608 325.90733 330.83857 335.89799 340.1191 345.05039 349.98164 354.36058 358.7395 363.79893 366.54069 371.47193 375.85087 380.9103 384.1945 389.12574 394.71778 401.41438 406.0892 410.46815 413.75236 416.4941 420.87306 423.6148 430.8637 435.79496 441.39683 445.2333 449.61228 454.54353 459.47477 463.8537 468.78495 471.5267 474.26847 478.6474 483.697 488.62825 491.91246 496.29139 501.22264 503.9644 508.34333 511.08509 513.82687 518.75808 526.00698 528.7487 533.1276 536.9641 541.8953 545.7318">mightexpectthatforavarietyofsequentialpredictiontasks,</tspan></text>
<text xml:space="preserve" transform="matrix(.98994949 0 -0 1.0101526 0 792)" font-size="9.862471" font-family="NimbusRomNo9L"><tspan y="-576.99508" x="310.5613 315.49256 320.4238 324.2603 328.63926 331.92344 336.60813 340.98707 343.71897 346.46073 351.39198 356.3232 360.70216 365.37696 370.3082 374.68714 377.4289 383.74089 391.41389 394.15565 399.08689 404.01814 408.6929 413.62416 417.796 422.5793 428.89128 433.8225 438.75376 441.4955 445.33204 451.644 454.38578 459.31703 463.69596 468.36088 471.10264 476.87217 481.8034 486.73466 491.40946 494.1512 499.08247 504.0137 508.39265 513.3239 517.7028 522.63406 527.56527 531.94418 536.87539 539.6172 542.35897">observationaldatamighthavenoisethatisnotindependently</tspan></text>
<text xml:space="preserve" transform="matrix(1 0 -0 1 0 792)" font-size="9.9626" font-family="NimbusRomNo9L"><tspan y="-570.898" x="307.44 312.4213 315.1909 319.06636 321.83595 325.15348 327.92308 332.7051 337.6864 340.456 344.8794 352.35136 356.77476 361.19816 364.5157 369.49699 373.37245 379.73857 382.50816 385.27775 393.02867 397.45207 401.3275 404.0971 408.5205 413.5018 417.37727">distributedacrosstimesteps.</tspan></text>
<text xml:space="preserve" transform="matrix(1.0099504 0 -0 .99014768 0 792)" font-size="10.061731" font-family="NimbusRomNo9L"><tspan y="-558.4672" x="304.10505 310.25279 315.28364 322.77964 327.81053 332.59989 339.86448 344.89533 348.80937 351.6065 354.9571 359.4245 363.89195 374.74855 379.21595 382.31498 385.66554 390.13298 394.60038 400.4261 405.45698 411.83613 417.98387 424.695 434.98817 438.33876 446.16676 451.19764 454.54823 462.04423 465.39479 470.42567 473.7762 481.60426 486.07167 488.8688 491.66596 496.0529 501.73777 506.2052 514.26467 519.29556 524.3264 529.35726 534.3881">ThedownstreameffectofTCN(moreformally,anunob-</tspan></text>
<text xml:space="preserve" transform="matrix(.995992 0 -0 1.0040242 0 792)" font-size="9.922669" font-family="NimbusRomNo9L"><tspan y="-538.8416" x="308.6772 312.5371 316.94279 320.24705 325.0595 329.46516 336.91709 341.32276 346.28407 351.2454 354.54966 359.51097 364.4723 369.4336 374.39494 378.8006 382.10487 387.88978 390.6483 396.9988 399.7573 404.16297 411.8828 416.84413 421.80546 425.1097 429.51536 434.75453 439.1602 444.12153 447.42579 450.73005 455.13569 457.89418 462.29985 465.05833 467.81684 472.77815 477.73948 484.09 486.84849 494.3004 497.0589 502.02024 508.90657 512.2108 516.6165 521.02218 525.9835 529.2878 534.24917 538.6548">servedconfounder)istemporalcorrelationsintherecorded</tspan></text>
<text xml:space="preserve" transform="matrix(.98994949 0 -0 1.0101526 0 792)" font-size="9.862471" font-family="NimbusRomNo9L"><tspan y="-523.73776" x="310.5613 314.94026 319.31919 322.06095 324.8027 329.73396 334.6652 340.74049 343.48225 348.41349 352.79243 357.7631 362.69435 369.86439 374.79563 379.72688 384.69755 389.62879 393.81047 398.59376 405.20164 407.94337 412.87464 417.25358 419.99534 425.5183 428.26005 431.54426 436.4755 443.08335 447.46229 451.84126 456.7725 460.60899 467.2267 469.96849 477.1385 479.88026 484.8115 491.41935 494.70356 499.0825 503.46144 508.39268 511.67689 516.6081 520.98709 528.1571 531.9935 534.73538 539.11428 541.856 546.2349">actionsthatdonothavetheirtruecauseintherecordedstate.</tspan></text>
<text xml:space="preserve" transform="matrix(1.003494 0 -0 .9965182 0 792)" font-size="9.997409" font-family="NimbusRomNo9L"><tspan y="-518.90676" x="306.36958 313.0378 318.03654 323.03526 326.92424 329.70353 334.70225 339.14109 344.95954 349.39839 354.3471 358.78593 361.56523 369.0633 374.06199 379.0607 384.87919 389.8779 394.8766 399.31544 404.31416 408.753 413.75169 418.7504 421.5297 425.96855 431.78703 436.7857 439.565 442.3443 447.34303 452.62165 457.62037 462.0592 469.8372 474.8359 479.83464 483.7236 486.5029 489.83204 494.27088 497.05018 499.82945 504.82817 512.3162 517.31497 522.0637 531.7812 534.5605">Consideragainourquadcopterpilotdemonstratinghowto</tspan></text>
<text xml:space="preserve" transform="matrix(1.0099504 0 -0 .99014768 0 792)" font-size="10.061731" font-family="NimbusRomNo9L"><tspan y="-510.1714" x="304.411 310.0053 317.57176 321.48579 324.28294 327.6335 332.10093 334.89808 339.92897 344.9598 350.29255 355.3234 362.88984 369.89283 373.24339 377.71083 380.50798 385.53883 390.00627 395.90245 403.16703 405.96418 410.99504 416.0259 423.59236 428.62324 433.09065 437.47758 443.26307 446.61366 452.4998 459.76435 466.76734 471.7982 474.59535 477.94593 482.41334 486.88075 489.6779 492.47505 500.04148 503.39207 507.85945 515.4259 518.2231 523.2539 527.7213 531.6353">&#xfb02;ystraightonaratherwindyday.Ifwedirectlyfedthese</tspan></text>
<text xml:space="preserve" transform="matrix(1.0009996 0 -0 .9990015 0 792)" font-size="9.972557" font-family="NimbusRomNo9L"><tspan y="-493.68193" x="307.133 311.01234 318.21253 322.64036 325.9612 330.7979 335.22575 338.5466 344.09135 346.8637 349.6361 354.06394 361.5234 364.29579 367.61668 372.0445 374.81687 379.2447 383.67253 386.4449 391.43119 394.75205 397.5244 401.95225 408.31477 411.08714 418.5466 421.319 426.30528 433.21629 435.98866 440.41648 444.8443 448.16517 453.15147 457.57929 460.50126 465.47758 468.24995 473.23625 477.51448 484.97398 492.7326 495.505 500.49128 505.47758 510.73313 513.5055 517.9333 522.36117 525.682 533.1414 535.9138">swerve-&#xfb01;lledtrajectoriestothelearner,theymightlearnto</tspan></text>
<text xml:space="preserve" transform="matrix(.99045446 0 -0 1.0096376 0 792)" font-size="9.867501" font-family="NimbusRomNo9L"><tspan y="-476.64036" x="310.40299 313.68888 318.07005 323.00379 326.28968 331.22343 336.1572 341.09095 345.4721 352.35966 355.1028 360.03657 366.93394 371.8677 375.9923 380.92607 383.66923 388.05039 390.79356 393.5367 398.4705 403.40425 407.24269 412.22578 417.15953 420.4454 425.37916 430.31294 435.24668 439.62785 442.371 447.30479 454.74488 457.48805 460.77394 465.1551 467.89826 472.27943 476.6606 479.40379 484.33753 487.6234 490.36659 494.74775 501.10243 503.84559 508.77934 513.1605 518.41006 523.34378 527.4783 532.41207 535.1552 539.5364 542.27957">reproducethedeviations,producingtrajectoriesthatdeviate</tspan></text>
<text xml:space="preserve" transform="matrix(1.0044898 0 -0 .99553027 0 792)" font-size="10.00733" font-family="NimbusRomNo9L" font-style="italic"><tspan y="-471.38603" x="306.06587 310.35899 314.80226 319.24549 326.73097 329.513 334.51664 338.40953 341.19154 346.1952 350.63847">evenfurther</tspan></text>
<text xml:space="preserve" transform="matrix(1.0044898 0 -0 .99553027 0 792)" font-size="10.00733" font-family="NimbusRomNo9L"><tspan y="-471.38603" x="357.23814 360.57057 363.903 368.90669 379.17417 386.09925 389.9921 392.77415 396.10658 400.54985 403.32188 408.32554 413.3292 418.59303 423.59669 428.03993 430.82197 438.30744 441.08949 448.57493 455.5 458.282 462.72529 466.61814 469.40019 472.7326 475.51466 478.28669 486.0724 492.99745 500.22273 503.00477 508.00843 513.0121 520.4976 524.94088 529.5442 534.54788 537.3299">fromastraightpathinatest-timewindyenvi-</tspan></text>
<text xml:space="preserve" transform="matrix(.98994949 0 -0 1.0101526 0 792)" font-size="9.862471" font-family="NimbusRomNo9L"><tspan y="-452.72767" x="310.5613 313.84553 318.77677 323.708 331.381 335.75996 340.6912 343.43296 348.89674 356.01744 360.92897 367.46778 375.14079 380.07203 383.35624 389.90495 394.28388 399.21513 403.0516 405.79338 409.07759 413.4565 417.83546 422.73713 425.47889 429.61125 434.3847 438.76365 441.5054 446.20979 448.95155 453.88279 458.26173 462.09825 468.63706 472.47358 477.40483 480.689 483.43077 489.437 494.36827 499.81236 502.5541 507.48536 511.8643 516.79556 521.7268 525.56326 528.30508 532.14157 534.8833 539.2622 544.1934">ronment.Atamoreabstractlevel,thesesortsofinconsistent</tspan></text>
<text xml:space="preserve" transform="matrix(1.0099504 0 -0 .99014768 0 792)" font-size="10.061731" font-family="NimbusRomNo9L"><tspan y="-449.8006" x="304.411 309.44187 314.47276 317.2699 320.06706 324.3835 332.11097 336.57838 340.4924 343.28956 346.0867 353.91474 358.38215 361.1793 365.6467 372.2573 376.7247 381.19215 388.91957 392.27015 396.73756 400.65159 405.68247 408.4796 413.9733 417.32389 420.67445 425.70533 436.2299 439.02705 443.49449 451.32249 456.35337 461.38426 464.7348 469.20225 474.69593 479.16337 484.1942 487.5448 490.8954 495.3628 498.15995 502.62736 505.4245 508.22169 513.25259 518.28347 524.894 529.92489 534.3923">policyestimatescanresultfromtemporalcorrelationsbe-</tspan></text>
<text xml:space="preserve" transform="matrix(.99045446 0 -0 1.0096376 0 792)" font-size="9.867501" font-family="NimbusRomNo9L"><tspan y="-429.27684" x="310.40299 313.14616 320.27049 324.65168 329.03285 336.49269 341.42643 345.8076 348.5409 351.82679 358.1913 363.12507 368.92716 373.30833 377.6895 380.43269 383.17585 388.1096 393.04335 399.40788 402.69377 407.07493 409.5418 414.47557 420.0803 422.82347 427.7572 434.6546 439.58836 443.9695 447.2554 451.09388 453.83705 457.67549 460.41865 464.79985 469.73359 475.0028 482.12718 484.87034 489.80409 497.25404 501.63523 504.6744 507.9603 512.3415 516.72268 519.4658 522.209 527.14279 534.60256 537.3457 542.2795">tweenpairsofactions(e.g.thepersistentwindaffectingthe</tspan></text>
<text xml:space="preserve" transform="matrix(.98994949 0 -0 1.0101526 0 792)" font-size="9.862471" font-family="NimbusRomNo9L"><tspan y="-417.22215" x="310.5613 315.49256 320.4238 324.2603 328.63926 331.92344 336.70677 341.0857 348.42338 353.3546 357.73359 362.11253 367.04377 369.78553 374.71678 379.648 385.3485 390.27976 394.6587 397.40046 402.3317 409.6694 412.9536 417.33256 422.8161 427.19505 431.57398 434.31575 438.69468 446.04225 448.784 456.12168 458.86344 463.79469 470.58995 474.42646 477.1682 481.54716 484.2889 491.07429 494.3585 498.73744 501.20304 506.13429 511.68687 514.4286 519.35989 526.1551 531.0863 536.0175 540.3964 545.32766">observedheading)beingre&#xfb02;ectedinthestate(e.g.thequad-</tspan></text>
<text xml:space="preserve" transform="matrix(1.0099504 0 -0 .99014768 0 792)" font-size="10.061731" font-family="NimbusRomNo9L"><tspan y="-413.5777" x="304.411 308.87843 313.9093 318.94017 321.7373 326.20475 332.5839 337.61476 342.64564 346.55967 349.3568 352.15397 354.9511 359.98197 365.01286 371.40208 374.19923 378.66664 383.13407 388.16493 390.96208 395.99296 404.0524 406.84956 414.91908 418.8331 423.86396 428.89485 432.24543 435.04258 440.07344 445.1043 452.0469 456.51435 461.5452 464.89579 468.24635 472.71379 475.51094 479.97834 482.77549 485.57264 490.60353 495.63438 502.577 507.60786 512.07528 514.87246 522.137 526.6044 531.0718">copterposition)leadingtospuriouscorrelationsbetween</tspan></text>
<text xml:space="preserve" transform="matrix(1.0099504 0 -0 .99014768 0 792)" font-size="10.061731" font-family="NimbusRomNo9L"><tspan y="-401.50376" x="304.411 308.325 311.12217 315.5896 318.38676 325.55073 330.01814 335.049 342.77644 347.24388 351.71128 354.50843 357.30558 362.33647 370.0538 372.85096 377.88185 382.34925 387.84297 390.6401 395.671 402.83497 405.6321 410.09953 414.56697 417.9175 422.9484 427.4158 433.46296 441.29096 444.0881 449.119 454.14988 459.64356 464.67445 469.70533 473.05589 478.08677 481.43733 484.23448 489.26536 494.29624 498.76365 501.55073 506.01817 508.81535 516.5428 519.33999 523.8073 526.6045 531.0719">stateandactionthatthelearnermightunfortunatelylatch</tspan></text>
<text xml:space="preserve" transform="matrix(1 0 -0 1 0 792)" font-size="9.9626" font-family="NimbusRomNo9L"><tspan y="-385.593" x="307.44 312.4213 317.4026 320.17219 327.64414 330.96168 335.38508 337.87574 342.85704 348.4361 351.2057 356.18699 359.50453 364.4858 367.2554 372.2367 379.70866 383.02619 388.00749 391.325 394.0946 399.0759 403.4993 409.3075 412.0771 416.5005 419.81803 425.07829 432.27128 437.25257 441.67597 449.14793 454.1292 461.60118 464.37077 469.35206 476.2661 479.0357 483.4591 486.77665 489.54624 492.86378">onto(e.g.turningfurtherleftwhenontheleft).</tspan></text>
<text xml:space="preserve" transform="matrix(1.0099504 0 -0 .99014768 0 792)" font-size="10.061731" font-family="NimbusRomNo9L"><tspan y="-371.31837" x="303.9476 313.44587 318.4767 322.94416 329.1824 331.97956 337.0104 341.47785 349.9498 353.86384 358.8947 363.9256 368.95646 371.7536 380.2256 387.49015 395.39869 400.42955 405.46043 410.4913 418.3998 421.19697 429.66896 432.4661 436.9335 441.4009 444.7515 453.2134 456.01057 464.48255 467.27967 472.31056 476.77799 480.692 488.60054 493.06794 498.09883 503.12968 506.48027 511.5111 516.542 521.5728 526.6037 531.0711">Whatthenshouldwehopetolearnintheseconfounded</tspan></text>
<text xml:space="preserve" transform="matrix(1.0099504 0 -0 .99014768 0 792)" font-size="10.061731" font-family="NimbusRomNo9L"><tspan y="-359.2444" x="304.411 308.325 312.79246 315.5896 318.38676 321.1839 326.21476 331.24565 335.15968 343.81275 351.07734 353.62294 358.5129 362.98036 370.8486 378.1132 385.42808 390.45893 398.3272 403.35807 408.38896 414.03358 419.06443 423.3306 428.21055 435.52543 439.99284 444.46028 448.92768 453.3951 457.3091 464.06056 466.8577 474.73603 477.53318 482.56407 489.86888 494.89976 499.93064 504.9615 509.99235 513.9063 518.3737 521.7243 526.60427 531.07168">settings?Givenwedonothaveaccesstotheunobserved</tspan></text>
<text xml:space="preserve" transform="matrix(1.0099504 0 -0 .99014768 0 792)" font-size="10.061731" font-family="NimbusRomNo9L"><tspan y="-347.17045" x="304.411 308.87843 313.9093 318.94017 322.29075 327.3216 332.35249 337.38337 342.4142 346.88166 349.8398 358.25144 367.93083 371.28138 375.7488 380.21623 384.13026 389.1611 394.192 398.6594 403.69029 406.48744 416.1668 420.63423 425.6651 430.69599 433.49314 437.96055 447.63993 450.43708 459.56309 462.36024 472.593 477.0604 482.09129 486.0053 491.0362 494.38676 504.06614 506.86329 511.89414 516.3615 524.37069 531.63528">confounder,areasonablechoiceistoensurethatwe</tspan></text>
<text xml:space="preserve" transform="matrix(1.0099504 0 -0 .99014768 0 792)" font-size="10.061731" font-family="NimbusRomNo9L"><tspan y="-335.0965" x="304.411 312.239 316.70646 319.5036 323.971 332.25184 335.04899 340.07987 347.80729 352.83818 357.30558 362.33647 366.60264 371.63349 374.43064 379.46153 386.06205 391.09294 397.7035 402.1709 410.45173 414.7783 419.80915 424.84004 429.30747 432.65803 438.7051 445.9697 448.76686 451.564 459.84483 464.31224 468.77964 473.24708 477.71449 481.6285 488.80256 491.5997 499.88053 502.67768 507.70854 515.4259 519.3399 523.80728 531.6353">matchthebehaviorofanexpertwithaccesstothesame</tspan></text>
<text xml:space="preserve" transform="matrix(1.0099504 0 -0 .99014768 0 792)" font-size="10.061731" font-family="NimbusRomNo9L"><tspan y="-323.0215" x="304.411 307.20814 312.239 315.5896 320.62046 323.97105 331.79908 336.26649 339.06364 341.86079 346.89167 354.88069 362.14524 369.58088 374.61174 378.8779 383.7679 388.23533 395.29869 400.893 405.9239 411.67918 416.71006 419.5072 422.61628 425.9568 430.4242 433.77479 438.2422 443.27308 446.07023 448.86738 453.2543 458.85868 466.12327 473.55888 477.4729 482.50379 487.53465 492.56553 495.36268 503.35169 507.2657 510.06288 513.41348 515.9691 520.84909 528.27468 531.07186">informationwehave.Putdifferently,weshouldstriveto</tspan></text>
<text xml:space="preserve" transform="matrix(1.0099504 0 -0 .99014768 0 792)" font-size="10.061731" font-family="NimbusRomNo9L"><tspan y="-310.94758" x="304.411 309.44187 312.79246 317.8233 322.8542 327.88508 332.35249 341.19676 345.66419 350.1316 352.92875 355.7259 360.75679 365.78764 374.07853 381.90657 386.37397 389.1711 393.63856 398.6694 401.46656 406.49745 415.90516 418.7023 423.7332 428.76408 432.67808 441.5324 446.5633 449.91389 454.94474 459.97563 465.0065 468.9205 473.38795 482.79566 487.82655 497.23429 501.7017 511.1094 515.4259 520.4567 525.4876 529.955 533.3056">produceactionsmatchingthoseproposedbyanexpert</tspan></text>
<text xml:space="preserve" transform="matrix(1.0099504 0 -0 .99014768 0 792)" font-size="10.061731" font-family="NimbusRomNo9L" font-style="italic"><tspan y="-298.8736" x="304.411 309.44187 314.47276 318.94017 322.8542 325.65135 330.11875">queried</tspan></text>
<text xml:space="preserve" transform="matrix(1.0099504 0 -0 .99014768 0 792)" font-size="10.061731" font-family="NimbusRomNo9L"><tspan y="-298.8736" x="339.38398 343.8514 348.88227 353.91316 358.94404 365.7055 370.7364 375.76728 383.0922 387.55964 392.59049 395.94108 399.29164 403.75907 408.78993 415.5514 420.58226 425.61314 429.52717 433.99458 437.34516 442.12446 446.5919 449.38905 452.1862 457.21705 462.24794 472.3298 481.82807 486.85896 489.6561 492.45326 500.88496 505.3524 510.3832 515.4141 518.2113 523.2421 526.0393 531.0702">aboutourcurrentobservation.Whileapplying</tspan></text>
<text xml:space="preserve" transform="matrix(1.0099504 0 -0 .99014768 0 792)" font-size="10.061731" font-family="NimbusRomNo9L"><tspan y="-286.79966" x="304.411 308.87843 318.04466 320.8418 325.87269 328.66984 333.13725 336.48783 340.95524 345.42265 348.2198 350.77546 355.6554 364.26826 367.0654 374.8934 377.69056 380.4877 384.95515 387.74223 390.53938 395.57026 404.74656 407.5437 412.0111 416.47853 419.8291 424.86 427.65715 432.688 441.85426 446.32167 449.1188 454.1497 459.18055 462.53114 465.32829 468.12544 473.15629 485.12974 487.92689 490.72404 495.6543 504.25709 511.12928 518.39389 523.42477 528.45559 532.923">aninteractiveimitationlearningalgorithmlikeDAgger</tspan></text>
<text xml:space="preserve" transform="matrix(1.0099504 0 -0 .99014768 0 792)" font-size="10.061731" font-family="NimbusRomNo9L"><tspan y="-274.7257" x="304.0862">(</tspan></text>
<text fill="#001473" xml:space="preserve" transform="matrix(1.0099504 0 -0 .99014768 0 792)" font-size="10.061731" font-family="NimbusRomNo9L"><tspan y="-274.7257" x="307.4368 314.14799 319.17884 323.09288 331.29319 335.76063 342.85414 347.32154 350.11869">Rossetal.</tspan></text>
<text xml:space="preserve" transform="matrix(1.0099504 0 -0 .99014768 0 792)" font-size="10.061731" font-family="NimbusRomNo9L"><tspan y="-274.7257" x="352.63407">,</tspan></text>
<text fill="#001473" xml:space="preserve" transform="matrix(1.0099504 0 -0 .99014768 0 792)" font-size="10.061731" font-family="NimbusRomNo9L"><tspan y="-274.7257" x="359.43577 364.46665 369.49754 374.52839">2011</tspan></text>
<text xml:space="preserve" transform="matrix(1.0099504 0 -0 .99014768 0 792)" font-size="10.061731" font-family="NimbusRomNo9L"><tspan y="-274.7257" x="379.55934 387.1962 394.36015 399.39103 404.4219 407.21907 416.54627 421.0137 423.81086 426.608 431.3873 442.93818 447.96907 456.17945 458.9766 468.29377 472.76118 477.79206 480.5892 483.38636 487.85377 492.3212 499.40464 508.1684 513.1993 517.6666 520.4638 524.9312 528.8452 533.3126">)wouldallowustocollectadataset</tspan></text>
<text xml:space="preserve" transform="matrix(1.0099504 0 -0 .99014768 0 792)" font-size="10.061731" font-family="NimbusRomNo9L"><tspan y="-262.65174" x="304.411 309.44187 314.47276 318.94017 323.97105 327.3216 330.67219 335.70307 340.73393 343.53108 347.9985 359.16703 364.1979 375.35636 379.8238 384.85469 389.88554 393.2361 398.26698 403.29786 408.32875 413.3596 416.15675 421.18763 432.35615 435.70674 440.17414 450.22584 457.4904 468.08543 473.11628 475.91343 479.264 483.7314 488.19886 490.996 493.79316 504.96168 509.99253 515.0234 518.9374 523.4048 526.7554 531.6353">uncorruptedbyconfounding(aswedirectlyobserve</tspan></text>
<text xml:space="preserve" transform="matrix(1.0099504 0 -0 .99014768 0 792)" font-size="10.061731" font-family="NimbusRomNo9L"><tspan y="-250.57678" x="304.411 309.44187 313.9093 318.3767 323.4076 328.43846 331.78904 336.8199 341.85078 346.88166 351.9125 356.37995 364.16773 368.49427 373.52516 378.556 383.02345 386.374 391.92805 396.39549 400.86289 403.66004 406.45719 411.48808 416.51893 420.43296 423.78355 429.13636 436.3607 441.39155 446.42243 450.88984 454.24043 459.2713 463.7387 468.7696 471.56675 478.79106 483.10755 488.1384 493.16929 497.6367 500.98728 506.5514 509.34855 516.0195 521.05038 526.08126 531.6353">deconfoundedexpertactions),aqueryableexpertisnota</tspan></text>
<text xml:space="preserve" transform="matrix(.9969955 0 -0 1.0030136 0 792)" font-size="9.932667" font-family="NimbusRomNo9L"><tspan y="-235.44345" x="308.36647 311.67405 316.08415 320.49424 323.25553 326.0168 329.88066 332.6419 335.4032 342.29649 346.70658 350.57038 354.4342 359.40055 367.12818 372.09449 374.85578 377.61708 382.5834 390.04283 393.3504 398.31675 404.10749 411.8351 416.2452 421.06257 428.5121 433.47843 438.44477 446.17237 450.5825 453.34376 458.3101 462.17393 467.75608 476.32798 483.22126 485.98255 490.94889 495.35899 498.66654 503.07667 506.38423 511.35057 514.65817 521.56137 524.86898 529.83529 534.24539 539.21176">realisticassumptionformanydomains.Wethereforefocus</tspan></text>
<text xml:space="preserve" transform="matrix(1.0099504 0 -0 .99014768 0 792)" font-size="10.061731" font-family="NimbusRomNo9L"><tspan y="-226.42887" x="304.411 309.44187 317.8233 322.29075 327.3216 332.35249 335.70307 340.73393 345.20137 349.66877 354.69966 359.16706 366.4216 369.21876 374.2496 378.71705 384.86476 389.89564 394.9265 399.39393 402.74449 407.2119 410.00907 417.817 422.84788 431.2293 434.02647 439.05735 446.86528 451.89613 456.36357 460.2776 463.07475 470.33934 475.3702 482.06129 489.87928 495.4736 500.35356 504.82096 513.2024 517.1164 521.5838 527.72146 532.7523">onapproachesthatoperateonthebasisofa&#xfb01;xedsetof</tspan></text>
<text xml:space="preserve" transform="matrix(1.0099504 0 -0 .99014768 0 792)" font-size="10.061731" font-family="NimbusRomNo9L"><tspan y="-214.3549" x="304.411 309.44187 313.9093 321.7373 326.7682 331.79908 335.71308 338.51023 341.8608 346.32823 349.12538 351.92253 356.9534 361.98429 365.8983 372.9214 381.6248 389.04029 394.07115 398.53858 402.4526 409.8681 414.89897 419.92985 426.2285 430.69593 433.49308 438.52394 443.5548 446.9054 449.70256 452.4997 457.53056 465.35859 472.22068 477.25157">demonstrations.Webaseouralgorithmson</tspan></text>
<text xml:space="preserve" transform="matrix(1.0099504 0 -0 .99014768 0 792)" font-size="10.061731" font-family="NimbusRomNo9L" font-style="italic"><tspan y="-214.3549" x="485.23374 488.03089 493.06178 496.9758 499.77296 503.68699 508.71784 515.9824 520.4498 525.48068 528.27786 533.3087">instrumental</tspan></text>
<text xml:space="preserve" transform="matrix(.98994949 0 -0 1.0101526 0 792)" font-size="9.862471" font-family="NimbusRomNo9L" font-style="italic"><tspan y="-198.275" x="310.5613 314.94026 319.8715 323.708 326.44978 331.381 336.31227 339.05403 345.82954 349.30113 353.2757 358.20695 361.6687 366.04765 369.88414 373.72065 376.4624 381.39366">variableregression</tspan></text>
<text xml:space="preserve" transform="matrix(.98994949 0 -0 1.0101526 0 792)" font-size="9.862471" font-family="NimbusRomNo9L"><tspan y="-198.275" x="388.72389 392.00807 395.29228 402.41297 408.99125 414.672">(IVR)(</tspan></text>
<text fill="#001473" xml:space="preserve" transform="matrix(.98994949 0 -0 1.0101526 0 792)" font-size="9.862471" font-family="NimbusRomNo9L"><tspan y="-198.275" x="417.9563 425.077 430.00825 434.93949 438.2237 440.96546 444.80195 449.9403 454.31925 459.46745 463.84638 466.58815">Angristetal.</tspan></text>
<text xml:space="preserve" transform="matrix(.98994949 0 -0 1.0101526 0 792)" font-size="9.862471" font-family="NimbusRomNo9L"><tspan y="-198.275" x="469.05375">,</tspan></text>
<text fill="#001473" xml:space="preserve" transform="matrix(.98994949 0 -0 1.0101526 0 792)" font-size="9.862471" font-family="NimbusRomNo9L"><tspan y="-198.275" x="473.91593 478.84718 483.7784 488.70967">1996</tspan></text>
<text xml:space="preserve" transform="matrix(.98994949 0 -0 1.0101526 0 792)" font-size="9.862471" font-family="NimbusRomNo9L"><tspan y="-198.275" x="493.64088 496.92506 501.81684 508.59239 511.33415 515.7131 520.09207 525.02328 529.95449 532.6962 537.62747 542.55868">),atechnique</tspan></text>
<text xml:space="preserve" transform="matrix(1.0099504 0 -0 .99014768 0 792)" font-size="10.061731" font-family="NimbusRomNo9L"><tspan y="-190.20699" x="304.411 307.76158 311.11216 316.143 330.7325 335.19996 339.66737 344.69825 349.7291 354.75999 362.588 367.05543 369.85258 373.20317 376.0003 380.4677 391.13316 394.48374 399.51463 409.62669 414.65754 419.12498 423.59239 426.38954 429.18669 434.21757 446.00993 453.27449 456.07164 458.86878 470.66114 475.12855 480.15943 485.1903 488.54087 493.57176 498.60264 503.63349 508.66438 511.46156 516.49246 528.2747 531.0719">fromeconometricsfordealingwithconfoundingin</tspan></text>
<text xml:space="preserve" transform="matrix(1.0099504 0 -0 .99014768 0 792)" font-size="10.061731" font-family="NimbusRomNo9L"><tspan y="-178.13202" x="304.411 307.76158 312.22898 316.6964 321.72727 325.07786 330.10874 334.57615 342.77647 347.80735 352.27476 355.0719 359.53935 367.2064 373.3541 378.38499 386.01179 391.04267 393.8398 398.8707 403.90156 407.25215 410.0493 414.2752 419.15516 423.62257 429.58918 432.38633 437.41719 441.8846 449.5114 454.5423 461.06233 464.41288 471.67747 481.548 484.34516 491.42866 494.2258 502.42613 505.22328 509.43913 514.3191 518.7865 522.1371 526.60446 531.6353">recordeddata.Thehigh-levelideaofIVRistoleverage</tspan></text>
<text xml:space="preserve" transform="matrix(1.0099504 0 -0 .99014768 0 792)" font-size="10.061731" font-family="NimbusRomNo9L"><tspan y="-166.05806" x="304.411 308.87843">an</tspan></text>
<text xml:space="preserve" transform="matrix(1.0099504 0 -0 .99014768 0 792)" font-size="10.061731" font-family="NimbusRomNo9L" font-style="italic"><tspan y="-166.05806" x="317.04035 319.8375 324.86836 328.78239 331.57954 335.49357 340.52445 347.789 352.2564 357.2873">instrument</tspan></text>
<text xml:space="preserve" transform="matrix(1.0099504 0 -0 .99014768 0 792)" font-size="10.061731" font-family="NimbusRomNo9L"><tspan y="-166.05806" x="360.084 365.89973 373.49635 377.41038 382.44123 387.4721 390.8227 395.2901 402.88673 407.9176 414.39738 417.74797 422.21537 427.24626 432.2771 437.30799 448.27528 453.0546 457.522 460.8726 463.66975 468.13716 470.9343 473.73146 478.76234 486.9224 489.71955 494.75044 499.78129 504.24873 509.27958 513.74697 518.77786 523.8087 528.2761 533.307">,asourceofrandomvariationindependent</tspan></text>
<text xml:space="preserve" transform="matrix(1.0099504 0 -0 .99014768 0 792)" font-size="10.061731" font-family="NimbusRomNo9L"><tspan y="-153.9841" x="304.411 309.44187 317.46107 320.2582 325.2891 334.4151 338.8825 343.9134 348.94425 352.29484 357.32569 362.35658 367.38746 372.4183 376.88575 379.8439 387.58137 390.3785 400.06797 405.09886 409.56626 414.0337 419.06455 424.09544 427.44599 432.47688 437.50776 442.5386 452.23814 455.03529 460.06617 465.09703 470.1279 472.92506 481.5077 484.30485 494.00437 503.13035 505.9275 510.3949 514.86227 518.2128 523.2437 526.0409 531.0718">oftheconfounder,todeconfoundinputstoalearning</tspan></text>
<text xml:space="preserve" transform="matrix(.9919677 0 -0 1.0080973 0 792)" font-size="9.882578" font-family="NimbusRomNo9L"><tspan y="-139.38338" x="309.92948 314.87077 318.16169 323.10298 327.49085 331.87873 336.82005 341.76133 345.05223 351.96018 356.90147 359.6488 366.54689 370.93476 375.87605 380.81736 385.75865 388.506 391.25337 394.0007 398.942 403.8833 406.63066 411.57197 419.03334 423.9746 431.43598 434.18333 439.12464 446.02268 448.77003 453.71134 457.55567 460.303 463.5939 468.53523 476.22386 480.61174 485.55305 488.30039 493.9038 497.1947 504.65608 509.59736 514.53866 519.48 523.8678 531.55648 534.30386 538.69168 543.0795">procedureviaconditioningontheinstrument.Indynamical</tspan></text>
<text xml:space="preserve" transform="matrix(1.0099504 0 -0 .99014768 0 792)" font-size="10.061731" font-family="NimbusRomNo9L"><tspan y="-129.8362" x="304.411 308.325 313.3559 317.26994 320.06709 324.5345 332.36253 336.27656 342.384 347.4149 350.21205 354.12608 356.92323 361.95408 365.30467 373.69615 378.16355 382.63099 391.02244 395.48988 399.95729 406.1251 410.59254 417.86717 420.6643 425.69517 428.4923 435.76695 439.68098 444.71186 449.7427 453.0933 457.5607 465.3988 470.42967 477.14085 481.92018 486.38758 489.73817 492.5353 497.00273 499.79988 502.59703 507.62788 512.65878 518.76626 523.23367 530.50827 533.3054">systems,historycanactasthissourceofvariation,asit</tspan></text>
<text xml:space="preserve" transform="matrix(1.0099504 0 -0 .99014768 0 792)" font-size="10.061731" font-family="NimbusRomNo9L"><tspan y="-117.76224" x="304.411 307.20814 314.33189 319.36274 324.39363 328.86103 331.96006 335.31065 339.77806 344.24546 347.0426 351.51005 359.74055 364.77143 373.012 376.36256 381.39344 384.19059 389.22148 392.57203 400.24916 404.71656 409.74745 414.77833 418.12889 423.15977 428.19065 433.2215 438.25239 441.04954 446.0804 454.3109">isunaffectedbyfutureconfounding(</tspan></text>
<text fill="#001473" xml:space="preserve" transform="matrix(1.0099504 0 -0 .99014768 0 792)" font-size="10.061731" font-family="NimbusRomNo9L"><tspan y="-117.76224" x="457.66133 464.92588 469.39329 472.74388 477.63386 485.86439 490.3318 496.33866 500.80607 503.6032">Hefnyetal.</tspan></text>
<text xml:space="preserve" transform="matrix(1.0099504 0 -0 .99014768 0 792)" font-size="10.061731" font-family="NimbusRomNo9L"><tspan y="-117.76224" x="506.11854">,</tspan></text>
<text fill="#001473" xml:space="preserve" transform="matrix(1.0099504 0 -0 .99014768 0 792)" font-size="10.061731" font-family="NimbusRomNo9L"><tspan y="-117.76224" x="511.84367 516.8745 521.9054 526.9363">2015</tspan></text>
<text xml:space="preserve" transform="matrix(1.0099504 0 -0 .99014768 0 792)" font-size="10.061731" font-family="NimbusRomNo9L"><tspan y="-117.76224" x="531.9671 535.3177">).</tspan></text>
<text xml:space="preserve" transform="matrix(1.0099504 0 -0 .99014768 0 792)" font-size="10.061731" font-family="NimbusRomNo9L"><tspan y="-105.68727" x="304.411 311.67558 316.70646 324.59486 329.5352 333.85166 343.42039 346.21754 351.2484 355.16246 357.9596 362.99046 368.02134 375.35633 378.15348 386.61543 389.41258 394.44346 398.91087">Ourkeyinsightisthat</tspan></text>
<text xml:space="preserve" transform="matrix(1 0 -0 1 0 792)" font-size="9.9626" font-family="NimbusRomNo9L" font-weight="bold" font-style="italic"><tspan y="-104.646" x="410.288 416.8334 425.8396 430.263 435.2443 445.37629 448.14588 452.56929 456.84324 461.26664 465.1421 470.12339 475.10469 484.11088 489.09217 494.07347 497.9489 505.3013 509.17677 511.94636 516.9277 519.69729 524.12069 532.5789 537.56027">wecanleveragepaststatesas</tspan></text>
<text xml:space="preserve" transform="matrix(1 0 -0 1 0 792)" font-size="9.9626" font-family="NimbusRomNo9L" font-weight="bold" font-style="italic"><tspan y="-92.691" x="307.44 310.2096 315.7488 319.62428 322.39387 326.26933 331.80854 339.55946 343.98286 349.52207 352.29167 360.76985 363.53944 373.12345 378.10475 381.9802 386.4036 391.3849 400.9689 403.7385 409.2777 418.30384 422.1793 427.16059 432.6998 436.57527 439.34486 444.32615 449.86537 458.34355 462.76695 467.74824 471.6237 475.49916 479.92256 482.69215 487.67344 490.44303 493.21263 498.1939 508.33586 513.31716 517.74057 520.51016 527.0556 531.479 535.9024">instrumentstobreakthespuriouscorrelationbetween</tspan></text>
<text xml:space="preserve" transform="matrix(1 0 -0 1 0 792)" font-size="9.9626" font-family="NimbusRomNo9L" font-weight="bold" font-style="italic"><tspan y="-80.736" x="307.44 311.31547 314.08506 319.06636 321.83595 326.25935 332.62547 337.60676 343.14598 350.61793 355.5992 360.0226 362.7922 365.5618 370.5431 376.0823 382.44844 386.87184 391.85313 397.39234 401.2678 405.6912 413.16316 418.14445 425.0585 430.0398 438.06968 443.6089 449.1481 454.1294 459.1107 462.98616 467.40956 471.285 475.55897 479.98237 487.4543 491.87773 496.859 502.39823 505.61613 510.5974 516.1366 521.6758 526.6571 531.0805">statesandactionscausedbyanunobservedconfounder</tspan></text>
<text xml:space="preserve" transform="matrix(1 0 -0 1 0 792)" font-size="9.9626" font-family="NimbusRomNo9L"><tspan y="-80.736" x="534.955">.</tspan></text>
</g>
</g>
</svg>
